<?xml version="1.0" standalone="no"?>
<!DOCTYPE svg PUBLIC "-//W3C//DTD SVG 20010904//EN"
 "http://www.w3.org/TR/2001/REC-SVG-20010904/DTD/svg10.dtd">
<svg version="1.0" xmlns="http://www.w3.org/2000/svg"
 width="512.000000pt" height="512.000000pt" viewBox="0 0 512.000000 512.000000"
 preserveAspectRatio="xMidYMid meet">
<metadata>
Created by potrace 1.14, written by Peter Selinger 2001-2017
</metadata>
<g transform="translate(0.000000,512.000000) scale(0.100000,-0.100000)"
fill="#000000" stroke="none">
<path d="M2245 4201 c-360 -65 -652 -217 -905 -471 -140 -140 -229 -263 -315
-435 -71 -142 -113 -262 -147 -418 -20 -89 -23 -131 -23 -332 0 -201 3 -243
23 -332 50 -231 151 -463 279 -643 87 -122 271 -306 393 -393 180 -128 412
-229 643 -279 89 -20 131 -23 332 -23 201 0 243 3 332 23 231 50 463 151 643
279 122 87 306 271 393 393 128 180 229 412 279 643 20 89 23 131 23 332 0
201 -3 243 -23 332 -50 231 -151 463 -279 643 -87 122 -271 306 -393 393 -179
127 -413 229 -638 278 -140 31 -475 36 -617 10z m31 -1391 c35 -13 84 -61 107
-104 27 -51 29 -180 4 -237 -49 -112 -152 -159 -287 -132 -47 9 -125 87 -139
138 -14 53 -14 148 1 197 15 51 80 124 121 137 63 20 140 20 193 1z m521 -8
c29 -16 61 -55 78 -95 l15 -37 -34 0 c-28 0 -36 5 -47 31 -17 42 -85 73 -142
66 -53 -7 -87 -33 -115 -88 -20 -37 -23 -55 -19 -120 6 -123 53 -175 157 -173
79 1 140 57 140 128 0 26 -1 26 -70 26 -68 0 -70 1 -70 25 l0 25 100 0 100 0
0 -125 c0 -117 -1 -125 -19 -125 -14 0 -21 9 -26 31 l-7 31 -26 -24 c-39 -35
-76 -48 -135 -48 -102 1 -174 56 -203 157 -32 109 8 248 85 299 61 40 178 48
238 16z m509 8 c35 -13 84 -61 107 -104 27 -51 29 -180 4 -237 -49 -112 -152
-159 -287 -132 -47 9 -125 87 -139 138 -14 53 -14 148 1 197 15 51 80 124 121
137 63 20 140 20 193 1z m-1646 -205 l0 -205 120 0 120 0 0 -30 0 -30 -150 0
-150 0 0 235 0 235 30 0 30 0 0 -205z"/>
<path d="M2120 2759 c-69 -29 -104 -90 -104 -184 -1 -124 51 -186 158 -187
102 -1 155 58 163 182 8 112 -49 189 -144 196 -26 2 -59 -1 -73 -7z"/>
<path d="M3150 2759 c-69 -29 -104 -90 -104 -184 -1 -124 51 -186 158 -187
102 -1 155 58 163 182 8 112 -49 189 -144 196 -26 2 -59 -1 -73 -7z"/>
</g>
</svg>
